<svg height="512" viewBox="0 0 512 512" width="512" xmlns="http://www.w3.org/2000/svg" xmlns:xlink="http://www.w3.org/1999/xlink"><linearGradient id="linear-gradient" gradientUnits="userSpaceOnUse" x1="53.864" x2="458.136" y1="458.136" y2="53.864"><stop offset="0" stop-color="#41dfd0"/><stop offset="1" stop-color="#ee83ef"/></linearGradient><g id="gradient"><path d="m476 80h-360a20.023 20.023 0 0 0 -20 20v60h-60a20.023 20.023 0 0 0 -20 20v232a20.023 20.023 0 0 0 20 20h360a20.023 20.023 0 0 0 20-20v-60h60a20.023 20.023 0 0 0 20-20v-232a20.023 20.023 0 0 0 -20-20zm-360 16h360a4 4 0 0 1 4 4v28h-368v-28a4 4 0 0 1 4-4zm-4 48h368v40h-64v-4a20.023 20.023 0 0 0 -20-20h-284zm288 268a4 4 0 0 1 -4 4h-360a4 4 0 0 1 -4-4v-232a4 4 0 0 1 4-4h360a4 4 0 0 1 4 4zm76-76h-60v-24h16v-16h-16v-16h48v-16h-48v-64h64v132a4 4 0 0 1 -4 4zm-324-144h-88a8 8 0 0 0 -8 8v80a8 8 0 0 0 8 8h88a8 8 0 0 0 8-8v-80a8 8 0 0 0 -8-8zm-8 16v8h-32a8 8 0 0 0 -5.657 2.343l-13.657 13.657h-20.686v-24zm0 24v16h-28.687l-8-8 8-8zm-72 40v-24h20.686l13.657 13.657a8 8 0 0 0 5.657 2.343h32v8zm152-48h-32v-16h32zm152 0h-136v-16h136zm-72 32h-112v-16h112zm16 0v-16h24v16zm-216 80v16h-40v-16zm16 0h40v16h-40zm56 0h40v16h-40zm56 0h40v16h-40zm120-8a31.914 31.914 0 0 0 -16.006 4.3 32 32 0 1 0 0 55.4 31.993 31.993 0 1 0 16.006-59.7zm-48 32a16 16 0 1 1 16 16 16.019 16.019 0 0 1 -16-16zm48 16a15.97 15.97 0 0 1 -4-.521 31.915 31.915 0 0 0 0-30.958 15.995 15.995 0 1 1 4 31.479zm-288-8h56v16h-56zm72 0h16v16h-16zm32 0h24v16h-24zm280-72h16v16h-16z" fill="url(#linear-gradient)"/></g></svg>