<?xml version="1.0"?>
<svg xmlns="http://www.w3.org/2000/svg" xmlns:xlink="http://www.w3.org/1999/xlink" viewBox="0 0 512 512" width="512" height="512"><defs><linearGradient id="linear-gradient" x1="59.037" y1="452.963" x2="452.963" y2="59.037" gradientUnits="userSpaceOnUse"><stop offset="0" stop-color="#41dfd0"/><stop offset="1" stop-color="#ee83ef"/></linearGradient></defs><g id="gradient"><path d="M104,208H88V192h16ZM88,240h16V224H88ZM72,208v16H88V208Zm32,16h16V208H104Zm304-88H392v16h16Zm-16,48h16V168H392Zm0-32H376v16h16Zm32,16V152H408v16Zm0,96H408v16h16Zm-16,64h16V312H408Zm-24-24h16V288H384Zm64-16H432v16h16Zm48-176V400a24.028,24.028,0,0,1-24,24H40a24.028,24.028,0,0,1-24-24V112A24.028,24.028,0,0,1,40,88H472A24.028,24.028,0,0,1,496,112ZM204,176h43.819A44.058,44.058,0,0,0,204,136a20,20,0,0,0,0,40ZM336,328V296H264v32Zm0-80H264v32h72Zm-88-28.933A68.507,68.507,0,0,1,236.073,232H248ZM264,232h11.927A68.507,68.507,0,0,1,264,219.067Zm88,0V192H268.133l3.464,8.083A52.6,52.6,0,0,0,320,232Zm-24-76a20.023,20.023,0,0,0-20-20,44.058,44.058,0,0,0-43.819,40H308A20.023,20.023,0,0,0,328,156ZM160,192v40h32a52.6,52.6,0,0,0,48.4-31.917L243.867,192Zm16,56v32h72V248Zm0,56h4a20.018,20.018,0,0,1,19.6,24H248V296H176Zm-35.77,16a29.733,29.733,0,0,0-24.792,13.276L112,338.425v24.158L145.541,376H190.8l68.641-21.1q.2-.063.411-.114A5.493,5.493,0,0,0,264,349.48a5.486,5.486,0,0,0-5.48-5.48H168a8,8,0,0,1,0-16h12a4,4,0,0,0,0-8ZM96,328H80v48H96V328Zm-32,0H32v48H64ZM480,112a8.009,8.009,0,0,0-8-8H40a8.009,8.009,0,0,0-8,8V312h72a7.979,7.979,0,0,1,6.333,3.124A45.679,45.679,0,0,1,140.23,304H160V248h-8a8,8,0,0,1-8-8V184a8,8,0,0,1,8-8h22.083A35.981,35.981,0,0,1,204,120a60.023,60.023,0,0,1,52,30.125A60.023,60.023,0,0,1,308,120a35.981,35.981,0,0,1,29.917,56H360a8,8,0,0,1,8,8v56a8,8,0,0,1-8,8h-8v88a8,8,0,0,1-8,8H279.265a21.448,21.448,0,0,1-15.3,26.252l-69.61,21.395A8.007,8.007,0,0,1,192,392H144a8,8,0,0,1-2.971-.572L112,379.816V384a8,8,0,0,1-8,8H32v8a8.009,8.009,0,0,0,8,8H472a8.009,8.009,0,0,0,8-8ZM352,392h80V376H352Zm96,0h16V376H448Z" style="fill:url(#linear-gradient)"/></g></svg>
